/home/minht/3dpredictsim_tutorial/predsim_tutorial/Results/Case_12/GRF.mot
version=1
nRows=15
nColumns=19
inDegrees=yes
endheader 
time	r_ground_force_vx	r_ground_force_vy	r_ground_force_vz	r_ground_force_px	r_ground_force_py	r_ground_force_pz	l_ground_force_vx	l_ground_force_vy	l_ground_force_vz	l_ground_force_px	l_ground_force_py	l_ground_force_pz	r_ground_torque_x	r_ground_torque_y	r_ground_torque_z	l_ground_torque_x	l_ground_torque_y	l_ground_torque_z	
          0.51838864	          3.06937271	        119.11959321	         36.21866541	         -0.18384542	          0.00000000	          0.12541532	        -16.23133121	        738.30975001	          3.56964800	          0.40000249	          0.00000000	         -0.10621677	          0.00000000	          0.75486934	          0.00000000	          0.00000000	        -14.75346032	          0.00000000	
          0.52624301	         -5.75181796	         92.45041321	         34.78741761	         -0.18314074	          0.00000000	          0.12933423	        -17.56075903	        758.88809876	          3.44743762	          0.40134252	          0.00000000	         -0.10609766	          0.00000000	          0.33146088	          0.00000000	          0.00000000	        -14.85108220	          0.00000000	
          0.53409739	        -14.90653963	         65.32308943	         30.36749293	         -0.18265370	          0.00000000	          0.13219107	        -19.28552599	        781.80411851	          3.75751160	          0.40257438	          0.00000000	         -0.10603204	          0.00000000	          0.07129265	          0.00000000	          0.00000000	        -14.85382422	          0.00000000	
          0.54195176	        -22.09690702	         40.91047738	         21.11163607	         -0.18221329	          0.00000000	          0.13316384	        -21.09260317	        807.08426526	          4.48742493	          0.40368220	          0.00000000	         -0.10602099	          0.00000000	          0.00209569	          0.00000000	          0.00000000	        -14.76128043	          0.00000000	
          0.54980613	          0.00000000	          0.00000000	          0.00000000	          0.00000000	          0.00000000	          0.00000000	        -22.85633766	        832.91430011	          5.44157247	          0.40468062	          0.00000000	         -0.10606131	          0.00000000	          0.00000000	          0.00000000	          0.00000000	        -14.56751517	          0.00000000	
          0.55766051	          0.00000000	          0.00000000	          0.00000000	          0.00000000	          0.00000000	          0.00000000	        -24.33689247	        857.87267474	          6.30626323	          0.40556745	          0.00000000	         -0.10615466	          0.00000000	          0.00000000	          0.00000000	          0.00000000	        -14.27832557	          0.00000000	
          0.56551488	          0.00000000	          0.00000000	          0.00000000	          0.00000000	          0.00000000	          0.00000000	        -25.25449137	        879.68109670	          6.81860561	          0.40636472	          0.00000000	         -0.10630051	          0.00000000	          0.00000000	          0.00000000	          0.00000000	        -13.89064008	          0.00000000	
          0.57336925	          0.00000000	          0.00000000	          0.00000000	          0.00000000	          0.00000000	          0.00000000	        -25.61925732	        898.04235202	          7.28774367	          0.40714906	          0.00000000	         -0.10648771	          0.00000000	          0.00000000	          0.00000000	          0.00000000	        -13.41509542	          0.00000000	
          0.58122363	          0.00000000	          0.00000000	          0.00000000	          0.00000000	          0.00000000	          0.00000000	        -25.90746587	        914.21343885	          7.87238624	          0.40798950	          0.00000000	         -0.10671585	          0.00000000	          0.00000000	          0.00000000	          0.00000000	        -12.90485357	          0.00000000	
          0.58907800	          0.00000000	          0.00000000	          0.00000000	          0.00000000	          0.00000000	          0.00000000	        -26.14848458	        929.12764845	          8.69297941	          0.40893929	          0.00000000	         -0.10699148	          0.00000000	          0.00000000	          0.00000000	          0.00000000	        -12.36575640	          0.00000000	
          0.59693237	          0.00000000	          0.00000000	          0.00000000	          0.00000000	          0.00000000	          0.00000000	        -26.75142868	        943.29293638	          9.67595160	          0.41008008	          0.00000000	         -0.10731798	          0.00000000	          0.00000000	          0.00000000	          0.00000000	        -11.78559938	          0.00000000	
          0.60478675	          0.00000000	          0.00000000	          0.00000000	          0.00000000	          0.00000000	          0.00000000	        -27.83165498	        957.13239290	         10.93880390	          0.41131504	          0.00000000	         -0.10772458	          0.00000000	          0.00000000	          0.00000000	          0.00000000	        -11.22465671	          0.00000000	
          0.61264112	          0.00000000	          0.00000000	          0.00000000	          0.00000000	          0.00000000	          0.00000000	        -29.13247372	        970.75278082	         12.36656482	          0.41253372	          0.00000000	         -0.10823797	          0.00000000	          0.00000000	          0.00000000	          0.00000000	        -10.76880059	          0.00000000	
          0.62049549	          0.00000000	          0.00000000	          0.00000000	          0.00000000	          0.00000000	          0.00000000	        -30.40000508	        983.67751397	         13.87082460	          0.41368292	          0.00000000	         -0.10886971	          0.00000000	          0.00000000	          0.00000000	          0.00000000	        -10.42634371	          0.00000000	
          0.62834987	          0.00000000	          0.00000000	          0.00000000	          0.00000000	          0.00000000	          0.00000000	        -31.52892273	        995.56766455	         15.56962558	          0.41475741	          0.00000000	         -0.10961704	          0.00000000	          0.00000000	          0.00000000	          0.00000000	        -10.17258785	          0.00000000	
